<svg width="24" height="24" viewBox="0 0 24 24" fill="none" xmlns="http://www.w3.org/2000/svg">
<path d="M12 16C12.5523 16 13 15.5523 13 15C13 14.4477 12.5523 14 12 14C11.4477 14 11 14.4477 11 15C11 15.5523 11.4477 16 12 16Z" stroke="#ECEFF1" stroke-linecap="round" stroke-linejoin="round"/>
<path d="M12 16V19" stroke="#ECEFF1" stroke-linecap="round" stroke-linejoin="round"/>
<path d="M19.5 9.5H4.5C3.94772 9.5 3.5 9.94772 3.5 10.5V22.5C3.5 23.0523 3.94772 23.5 4.5 23.5H19.5C20.0523 23.5 20.5 23.0523 20.5 22.5V10.5C20.5 9.94772 20.0523 9.5 19.5 9.5Z" stroke="#ECEFF1" stroke-linecap="round" stroke-linejoin="round"/>
<path d="M6.5 6C6.5 4.54131 7.07946 3.14236 8.11091 2.11091C9.14236 1.07946 10.5413 0.5 12 0.5C13.4587 0.5 14.8576 1.07946 15.8891 2.11091C16.9205 3.14236 17.5 4.54131 17.5 6V9.5H6.5V6Z" stroke="#ECEFF1" stroke-linecap="round" stroke-linejoin="round"/>
</svg>
